/* XPM */
static char *d86d31898365463adcf3c5af3fcc1286BIUuVxE9YHiOBPgO[] = {
/* columns rows colors chars-per-pixel */
"197 48 21 1 ",
"  c black",
". c None",
"X c #3F1014",
"o c #772B2E",
"O c #4A171B",
"+ c #A8352F",
"@ c #C53F41",
"# c #E7A376",
"$ c #160C0E",
"% c #6A1323",
"& c #C7CFCC",
"* c #882D1D",
"= c #EBEDE9",
"- c #BE772B",
"; c #A53030",
": c #21080A",
"> c #FF9E1F",
", c #151D28",
"< c #394A50",
"1 c #577277",
"2 c white",
/* pixels */
"                                                                                                                                                                                                     ",
"                                                                                                                                                                                                     ",
"                                                                                                                                                                                                     ",
"                                                                                                                                                                                                     ",
"                                                                                                                                                                                                     ",
"                                                                                                                                                                                                     ",
"                                                                                                                                                                                                     ",
"                     XXXX                                                                                                                                            XXXX                            ",
"                   XXooooXXXX                                        XXXX                                            XXXX                                          XXooooXXXX                        ",
"                X XooOoOoooo+X                                     XXooooXXXX                                      XXooooXXXX                                     XooOoOoooo+X                       ",
"              XXoOoooOOOooXXXoX                                 X XooOoOoooo+X                                  X XooOoOoooo+X                                  XOoooOOOooXXXoX                      ",
"             Xo+oOooOOOOoooo+X                                XXoOoooOOOooXXXoX                               XXoOoooOOOooXXXoX                               XXoOooOOOOoooo+X                       ",
"              XXoooooooOoXXXXX                               Xo+oOooOOOOoooo+X                               Xo+oOooOOOOoooo+X                               Xo+oooooooOoXXXXX                       ",
"               X+oooooooo++oXX                                XXoooooooOoXXXXX                                XXoooooooOoXXXXX                                XXooooooooo++oXX                       ",
"              XXo+X+++++++XXooX                                X+oooooooo++oXX                                 X+oooooooo++oXX                                XXo+X+++++++XXooX                      ",
"             XooX+Xo++X+XoooXoX                               XXo+X+++++++XXooX                               XXo+X+++++++XXooX                              XooX+Xo++X+XoooXoX                      ",
"             XoXooXooX@XooXooX                               XooX+Xo++X+XoooXoX                              XooX+Xo++X+XoooXoX                              XoXooXooX@XooXooX                       ",
"              XXoXXooX@@XoXXoX                               XoXooXooX@XooXooX                               XoXooXooX@XooXooX                                XXoXXooX@@XoXXoX                       ",
"               XX@@XX@@@@XXXX                                 XXoXXooX@@XoXXoX                                XXoXXooX@@XoXXoX                                 XX@@XX@@@@XXXX                        ",
"               XX@#XX@$$$@X%                                   XX@@XX@@@@XXXX                                  XX@@XX@@@@XXXX                                  XX@#XX@$$$@X%                         ",
"               XoX#oX#$&*@@%                                   XX@#XX@$$$@X%                                   XX@#XX@$$$@X%                                   XoX#oX#$&*@@%                         ",
"              XoooooX##=-##%                                   XoX#oX#$&*@@%                                   XoX#oX#$&*@@%                                    XoooX##=-##%                         ",
"               XooXooX#####%                                  XoooooX##=-##%                                  XoooooX##=-##%                                   XooXooX#####%                         ",
"                XX XoX@###%                                    XooXooX#####%                                   XooXooX#####%                                   XoX XoX@###%                          ",
"                    XXX%@%                                      XX XoX@###%                                     XX XoX@###%                                     X   XXX%@%                           ",
"                    %X&&X%                                          XXX%@%                                          XXX%@%                                          %X&&X%                           ",
"                   %;XXXXX%                                        %;XXXXX%                                         %X&&X%                                         %;XXXXX%                          ",
"                   %;%;;%X%                                        %;%;;%X%                                        %;XXXXX%                                        %;%;;%X%                          ",
"                   %;XooX;%                                        %;XooX;%                                        %;%;;%X%                                        %;%;;%X%                          ",
"                   %;XooX;%                                        %;XooX;%                                        %;XooX;%                                        %;XooX;%                          ",
"                   :X%@#%>:                                        :X%@#%>:                                        %;XooX;%                                        %;XooX;%                          ",
"                   :XX%%X:                                         :XX%%X:                                         :X%@#%>:                                        :X%@#%>:                          ",
"                    :XXoo:                                          :XXoo:                                         :XX%%X:                                         :XX%%X:                           ",
"                  ..:XXo:....                                     ..:XXo:....                                     ..:XXoo:...                                     ..:XXoo:...                        ",
"                ....,XXX,......                                 ....,XXX,......                                 ....:XXo:......                                 ....:XXo:......                      ",
"               .....,<<1,.......                               .....,<<1,.......                               .....,<<1,.......                               .....,<<1,.......                     ",
"              ......,<<<1,.......                             ......,<<<1,.......                             ......,<<<1,.......                             ......,<<<1,.......                    ",
"              .......,,,,,.......                             .......,,,,,.......                             .......,,,,,.......                             .......,,,,,.......                    ",
"               .................                               .................                               .................                               .................                     ",
"                ...............                                 ...............                                 ...............                                 ...............                      ",
"                  ...........                                     ...........                                     ...........                                     ...........                        ",
"                     .....                                           .....                                           .....                                           .....                           ",
"                                                                                                                                                                                                     ",
"                                                                                                                                                                                                     ",
"                                                                                                                                                                                                     ",
"                                                                                                                                                                                                     ",
"                                                                                                                                                                                                     ",
"                                                                                                                                                                                                     "
};
