/* XPM */
static char *cda8f5a150464220ffe1ab328abd5a41HFFG2kOcYFLJxzyc[] = {
/* columns rows colors chars-per-pixel */
"197 48 24 1 ",
"  c black",
". c None",
"X c #3F1014",
"o c #772B2E",
"O c #4A171B",
"+ c #A8352F",
"@ c #C53F41",
"# c #21080A",
"$ c #160C0E",
"% c #E7A376",
"& c #C7CFCC",
"* c #882D1D",
"= c #EBEDE9",
"- c #BE772B",
"; c #6A1323",
": c #511927",
"> c #D53E3E",
", c #A53030",
"< c #DA863E",
"1 c #FF9E1F",
"2 c #151D28",
"3 c #394A50",
"4 c #577277",
"5 c white",
/* pixels */
"                                                                                                                                                                                                     ",
"                                                                                                                                                                                                     ",
"                                                                                                                                                                                                     ",
"                                                                                                                                                                                                     ",
"                                                                                                                                                                                                     ",
"                                                                                                                                                                                                     ",
"                                                                                                                                                                                                     ",
"                      XXXXXX                                                                                                                                         XXX                             ",
"                    XXooooooXX                                        XXXXXX                                          XXXXXX                                        XoooXXXX                         ",
"                 X XooOoooooo+X                                     XXooooooXX                                      XXooooooXX                                     XooOoooooXX                       ",
"               XXoXOooOOOoooXX                                   X XooOoooooo+X                                  X XooOoooooo+X                                 XXXOooOOOoooo+X                      ",
"              Xo+ooOooOOoooXXXX                                XXoXOooOOOoooXX                                 XXoXOooOOOoooXX                                 X+ooOooOOooooXX                       ",
"               XXooooOOOOOoo+ooX                              Xo+ooOooOOoooXXXX                               Xo+ooOooOOoooXXXX                               XoXooooOOOOOoooXX                      ",
"                XXooooooooo++oX                                XXooooOOOOOoo+ooX                               XXooooOOOOOoo+ooX                               XXXoooooooooo+ooX                     ",
"               XXo+oX+++++++XXX                                 XXooooooooo++oX                                 XXooooooooo++oX                                XXo+oX+++++++ooX                      ",
"              XooX++XX++X+XooooX                               XXo+oX+++++++XXX                                XXo+oX+++++++XXX                               XooX++XX++X+XooooX                     ",
"              XoXo+X@XooXooXoXooX                             XooX++XX++X+XooooX                              XooX++XX++X+XooooX                              XoXo+X@XooXooXoXoX                     ",
"               XXoXX@@XoXXoXXXXX                              XoXo+X@XooXooXoXooX                             XoXo+X@XooXooXoXooX                              XXoXX@XooXXoXXXooX                    ",
"                XoX@@@@XXXoXXX                                 XXoXX@@XoXXoXXXXX                               XXoXX@@XoXXoXXXXX                                XoX@@@XoXXoXX#XX                     ",
"                X@X$$$@@X$X$X@X                                 XoX@@@@XXXoXXX                                  XoX@@@@XXXoXXX                                  X@X$$$@XX$X$X@X                      ",
"                X%o$&*@@@*&$o%X                                 X@X$$$@@X$X$X@X                                 X@X$$$@@X$X$X@X                                 X%o$&*@@@*&$o%X                      ",
"               Xooo%=-%%%-=%oooX                                X%o$&*@@@*&$o%X                                 X%o$&*@@@*&$o%X                                  Xo%=-%%%-=%oX                       ",
"                Xoo@%%%%%%%@ooX                                Xooo%=-%%%-=%oooX                               Xooo%=-%%%-=%oooX                                Xoo@%%%%%%%@ooX                      ",
"                 XX;@%%%%%@;XX                                  Xoo@%%%%%%%@ooX                                 Xoo@%%%%%%%@ooX                                 XoX;@%%%%%@;XoX                      ",
"                   :;;@@@;;:                                     XX;@%%%%%@;XX                                   XX;@%%%%%@;XX                                   X :;;@@@;;: X                       ",
"                  :o>>&&&>Xo:                                     ::;;@@@;;::                                      :;;@@@;;:                                      :o>>&&&>Xo:                        ",
"                 X&,,,>>>X,,&X                                   X&,,,>>>X,,&X                                    :o>>&&&>Xo:                                     &,,,>>>>X,&                        ",
"                XoX,,,,,X,,,XoX                                 XoX,,,,,X,,,XoX                                  X&,,,>>>X,,&X                                   XX,,,,,,X,,XX                       ",
"                XXX,,,,X,,,,XXX                                 XXX,,,,X,,,,XXX                                 XoX,,,,,X,,,XoX                                 XoX,,,,,X,,,XoX                      ",
"                ;%@ooXX,,,oo@%;                                 ;%@ooXX,,,oo@%;                                XXX;,,,,X,,,,;XXX                                XXX,,,,X,,,,XXX                      ",
"                 ;;#Xo<1<XX#;;                                   ;;#Xo<1<XX#;;                                 ;%@;ooXX,,,oo;@%;                                ;%@ooXX,,,oo@%;                      ",
"                   #XXXXXXX#                                       #XXXXXXX#                                    ;; #Xo<1<XX# ;;                                  ;;#Xo<1<XX#;;                       ",
"                   #ooo#ooo#                                       #ooo#ooo#                                       #XXXXXXX#                                       #XXXXXXX#                         ",
"                  .#Xo#.#oX#.                                     .#Xo#.#oX#.                                     .#ooo#ooo#.                                     .#ooo#ooo#.                        ",
"                ...#XX2.2XX2...                                 ...#XX2.2XX2...                                 ...#Xo#.#oX#...                                 ...#Xo#.#oX#...                      ",
"               ....2332.2332....                               ....2332.2332....                               ....2332.2332....                               ....2332.2332....                     ",
"              .....2442.2442.....                             .....2442.2442.....                             .....2442.2442.....                             .....2442.2442.....                    ",
"              ......22...22......                             ......22...22......                             ......22...22......                             ......22...22......                    ",
"               .................                               .................                               .................                               .................                     ",
"                ...............                                 ...............                                 ...............                                 ...............                      ",
"                  ...........                                     ...........                                     ...........                                     ...........                        ",
"                     .....                                           .....                                           .....                                           .....                           ",
"                                                                                                                                                                                                     ",
"                                                                                                                                                                                                     ",
"                                                                                                                                                                                                     ",
"                                                                                                                                                                                                     ",
"                                                                                                                                                                                                     ",
"                                                                                                                                                                                                     "
};
