/* XPM */
static char *a7372cf402114ca8ce3127a6f93013cd7FSEA8wzqggucKTw[] = {
/* columns rows colors chars-per-pixel */
"197 48 21 1 ",
"  c black",
". c None",
"X c #3F1014",
"o c #772B2E",
"O c #A8352F",
"+ c #4A171B",
"@ c #C53F41",
"# c #6A1323",
"$ c #160C0E",
"% c #E7A376",
"& c #882D1D",
"* c #C7CFCC",
"= c #BE772B",
"- c #EBEDE9",
"; c #A53030",
": c #21080A",
"> c #FF9E1F",
", c #151D28",
"< c #577277",
"1 c #394A50",
"2 c white",
/* pixels */
"                                                                                                                                                                                                     ",
"                                                                                                                                                                                                     ",
"                                                                                                                                                                                                     ",
"                                                                                                                                                                                                     ",
"                                                                                                                                                                                                     ",
"                                                                                                                                                                                                     ",
"                                                                                                                                                                                                     ",
"                            XXXX                                                                                                                                            XXXX                     ",
"                        XXXXooooXX                                          XXXX                                            XXXX                                        XXXXooooXX                   ",
"                       XOoooo+o+ooX                                     XXXXooooXX                                      XXXXooooXX                                     XOoooo+o+ooX X                ",
"                      XoXXXoo+++ooo+X                                  XOoooo+o+ooX X                                  XOoooo+o+ooX X                                 XoXXXoo+++ooo+oXX              ",
"                       XOoooo++++oo+oXX                               XoXXXoo+++ooo+oXX                               XoXXXoo+++ooo+oXX                                XOoooo++++oo+oOoX             ",
"                       XXXXXo+oooooooOoX                               XOoooo++++oo+oOoX                               XOoooo++++oo+oOoX                               XXXXXo+oooooooXX              ",
"                       XXoOOoooooooooXX                                XXXXXo+oooooooXX                                XXXXXo+oooooooXX                                XXoOOooooooooOX               ",
"                      XooXXOOOOOOOXOoXX                                XXoOOooooooooOX                                 XXoOOooooooooOX                                XooXXOOOOOOOXOoXX              ",
"                      XoXoooXOXOOoXOXooX                              XooXXOOOOOOOXOoXX                               XooXXOOOOOOOXOoXX                               XoXoooXOXOOoXOXooX             ",
"                       XooXooX@XooXooXoX                              XoXoooXOXOOoXOXooX                              XoXoooXOXOOoXOXooX                               XooXooX@XooXooXoX             ",
"                       XoXXoX@@XooXXoXX                                XooXooX@XooXooXoX                               XooXooX@XooXooXoX                               XoXXoX@@XooXXoXX              ",
"                        XXXX@@@@XX@@XX                                 XoXXoX@@XooXXoXX                                XoXXoX@@XooXXoXX                                 XXXX@@@@XX@@XX               ",
"                         #X@$$$@XX%@XX                                  XXXX@@@@XX@@XX                                  XXXX@@@@XX@@XX                                   #X@$$$@XX%@XX               ",
"                         #@@&*$%Xo%XoX                                   #X@$$$@XX%@XX                                   #X@$$$@XX%@XX                                   #@@&*$%Xo%XoX               ",
"                         #%%=-%%XoooX                                    #@@&*$%Xo%XoX                                   #@@&*$%Xo%XoX                                   #%%=-%%XoooooX              ",
"                         #%%%%%XooXooX                                   #%%=-%%XoooooX                                  #%%=-%%XoooooX                                  #%%%%%XooXooX               ",
"                          #%%%@XoX XoX                                   #%%%%%XooXooX                                   #%%%%%XooXooX                                    #%%%@XoX XX                ",
"                           #@#XXX   X                                     #%%%@XoX XX                                     #%%%@XoX XX                                      #@#XXX                    ",
"                           #X**X#                                          #@#XXX                                          #@#XXX                                          #X**X#                    ",
"                          #XXXXX;#                                         #X**X#                                         #XXXXX;#                                        #XXXXX;#                   ",
"                          #X#;;#;#                                        #XXXXX;#                                        #X#;;#;#                                        #X#;;#;#                   ",
"                          #X#;;#;#                                        #X#;;#;#                                        #;XooX;#                                        #;XooX;#                   ",
"                          #;XooX;#                                        #;XooX;#                                        #;XooX;#                                        #;XooX;#                   ",
"                          #;XooX;#                                        #;XooX;#                                        :>#%@#X:                                        :>#%@#X:                   ",
"                          :>#%@#X:                                        :>#%@#X:                                         :X##XX:                                         :X##XX:                   ",
"                           :X##XX:                                         :X##XX:                                         :ooXX:                                          :ooXX:                    ",
"                        ...:ooXX:..                                     ...:ooXX:..                                     ....:oXX:..                                     ....:oXX:..                  ",
"                      ......:oXX:....                                 ......:oXX:....                                 ......,XXX,....                                 ......,XXX,....                ",
"                     .......,<11,.....                               .......,<11,.....                               .......,<11,.....                               .......,<11,.....               ",
"                    .......,<111,......                             .......,<111,......                             .......,<111,......                             .......,<111,......              ",
"                    .......,,,,,.......                             .......,,,,,.......                             .......,,,,,.......                             .......,,,,,.......              ",
"                     .................                               .................                               .................                               .................               ",
"                      ...............                                 ...............                                 ...............                                 ...............                ",
"                        ...........                                     ...........                                     ...........                                     ...........                  ",
"                           .....                                           .....                                           .....                                           .....                     ",
"                                                                                                                                                                                                     ",
"                                                                                                                                                                                                     ",
"                                                                                                                                                                                                     ",
"                                                                                                                                                                                                     ",
"                                                                                                                                                                                                     ",
"                                                                                                                                                                                                     "
};
