/* XPM */
static char *_e3a146d11c24934d60b8337fae2beaaOZxPogwd89l4ZvKW[] = {
/* columns rows colors chars-per-pixel */
"32 32 139 2 ",
"   c #06050D",
".  c #333941",
"X  c #4A5462",
"o  c #6D758D",
"O  c #9BABB2",
"+  c #5D6E78",
"@  c #407135",
"#  c #537442",
"$  c #5E677C",
"%  c #587263",
"&  c #5E824F",
"*  c #4E6D5A",
"=  c #7AA548",
"-  c #2F4B40",
";  c #A1B96E",
":  c #B5CF6B",
">  c #3C663F",
",  c #30652F",
"<  c #75A046",
"1  c #A8CA58",
"2  c #92AF64",
"3  c #2B453A",
"4  c #43683C",
"5  c #70A341",
"6  c #91BA4F",
"7  c #7BAB46",
"8  c #4A7939",
"9  c #4F596B",
"0  c #3C573F",
"q  c #80AF48",
"w  c #75A743",
"e  c #587844",
"r  c #475F43",
"t  c #566074",
"y  c #656E85",
"u  c #324F3B",
"i  c #496633",
"p  c #587239",
"a  c #97BE51",
"s  c #659B3D",
"d  c #345C37",
"f  c #548839",
"g  c #5B8142",
"h  c #485D52",
"j  c #3E524B",
"k  c #4E5E3F",
"l  c #6B9E40",
"z  c #1B1F21",
"x  c #4D7134",
"c  c #3B7033",
"v  c #2D5535",
"b  c #3C6837",
"n  c #3E544E",
"m  c #3F4A59",
"M  c #565D71",
"N  c #4E4C46",
"B  c #6E7E56",
"V  c #2B5A2D",
"C  c #374044",
"Z  c #2A4C36",
"A  c #315637",
"S  c #324B2E",
"D  c #27403A",
"F  c #465560",
"G  c #626C80",
"H  c #4A5864",
"J  c #498035",
"K  c #427734",
"L  c #468232",
"P  c #3B7331",
"I  c #2E4A3B",
"U  c #4E4D5D",
"Y  c #44424B",
"T  c #43444F",
"R  c #3B3A48",
"E  c #385234",
"W  c #4A6F3D",
"Q  c #62963D",
"!  c #376833",
"~  c #5A8C3C",
"^  c #3F7831",
"/  c #3F4E54",
"(  c #3C2F39",
")  c #3F232C",
"_  c #341C27",
"`  c #30242F",
"'  c #427D32",
"]  c #2C602F",
"[  c #586D70",
"{  c #657E81",
"}  c #55656D",
"|  c #677086",
" . c #3D424F",
".. c #666C3A",
"X. c #557036",
"o. c #314C2D",
"O. c #2A432C",
"+. c #37533D",
"@. c #568E38",
"#. c #758B8D",
"$. c #A6B4B3",
"%. c #93A2A1",
"&. c #5D6C73",
"*. c #6C6D82",
"=. c #6B4341",
"-. c #63342A",
";. c #51272A",
":. c #493E37",
">. c #425B41",
",. c #5E737E",
"<. c #465460",
"1. c #555E71",
"2. c #454C5E",
"3. c #2E4243",
"4. c #674F2C",
"5. c #684730",
"6. c #7D4C2B",
"7. c #3B542D",
"8. c #4B413E",
"9. c #595F74",
"0. c #656D84",
"q. c #51576B",
"w. c #494E61",
"e. c #405448",
"r. c #467836",
"t. c #508438",
"y. c #517130",
"u. c #324547",
"i. c #4D5366",
"p. c #555B70",
"a. c #414859",
"s. c #333D4B",
"d. c #4D6B45",
"f. c #46713A",
"g. c #3A4352",
"h. c #3E4656",
"j. c #5D647A",
"k. c #61687F",
"l. c #697188",
/* pixels */
"                                                                ",
"  . . X X . . X X X o o o o o o o o o o o X X . . X o o X . .   ",
"  . O O O O O o o o O O O O o o o o o o o o o o o o o o o o X   ",
"  X O o o o o o o o o o o o o o o o o o o o o o o o o o o o X   ",
"  X O o o o o o o o o o o o o o o o o o o o o o o o o o o o .   ",
"  X O o o o o o o o o o o o o o o o o o o o o o o o o o o o .   ",
"  X o o o o o o o o o o o o o o o o o o o o o o o o o o o o o   ",
"  X o o o o o o o o + + o o o o o o o o o o o o o o o o o o X   ",
"  o o o o o o o o o @ # $ $ % & & % $ o o o o o o o o o o o X   ",
"  o o o o o o o o o * = - - ; : : ; - $ o o o o o o o o o o o   ",
"  o o o o o o o o o + > , < 1 1 1 1 2 3 o o o o o o o o o o o   ",
"  o o o o o o o o o o $ 4 5 6 1 1 1 7 8 9 o o o o o o o o o o   ",
"  o o o o o o o o o o o 0 7 q w w w 5 8 e r t y o o o o o o X   ",
"  o o o o o o o o o o o u i p w a q s u d f g h o o o o o o X   ",
"  o o o o o o o o o o o j k p l z x c v b n m $ o o o o o o .   ",
"  o o o o o o o o o o o M N @ @ B V C t t y o o o o o o o X .   ",
"  o o o o o o o o o o $ Z A S , , S D F o o o o o o o o o X .   ",
"  o o o o o o o G H o m J K L L L L P I o o o o o o o o o O .   ",
"  o o o o o o o U Y T R E W Q ! ~ ~ ^ L m o o o o o o o o O .   ",
"  X o o o o o o / ( ) _ ` W ' P P ] A L m o o o o o o o o o X   ",
"  X o o o o o o [ { } |  ...X.o.O.O.+.@.m o o o o o o o o o O   ",
"  o o o o o o o #.$.%.&.*.=.-.;.;.-.:.>.$ o o o o o o o o o O   ",
"  o o o o o o o ,.,.<.1.2.3.4.5.6.7.8.9.0.o o o o o o o o o o   ",
"  o o o o o o o o o q.w.e.r.t.I y.] u.w.i.0.o o o o o o o o o   ",
"  o o o o o o o o p.w.w.a.s.s.d.f.f.g.w.w.w.o o o o o o o o .   ",
"  o o o o o o o o 0.w.w.w.w.w.a.h.h.w.w.w.9.o o o o o o o . .   ",
"  o o o o o o o o o 0.p.w.w.w.w.w.w.w.q.j.o o o o o o o o . .   ",
"  X o o o o o o o o o o k.k.w.w.w.9.k.l.o o o o o o o o . . X   ",
"  X o o o o o o o o o o o o o o o o o o o X o o o o o . X X X   ",
"  . X o o o o o o o o o o o o o o o o o O X o o o o . X X X     ",
"  . . X X X X o o X o o o o o o X X X X . . X X o . X X         ",
"                                                                "
};
