/* XPM */
static char *floor_ezgif_com_optipng[] = {
/* columns rows colors chars-per-pixel */
"32 32 144 2 ",
"   c #06050D",
".  c #333941",
"X  c #4A5462",
"o  c #6D758D",
"O  c #9BABB2",
"+  c #686A80",
"@  c #5E5465",
"#  c #635F72",
"$  c #594958",
"%  c #562C34",
"&  c #642225",
"*  c #5D282D",
"=  c #4E313C",
"-  c #543D4A",
";  c #662326",
":  c #682428",
">  c #5E2023",
",  c #6D272A",
"<  c #772B2E",
"1  c #71282B",
"2  c #7A2626",
"3  c #6F2426",
"4  c #7C2A2B",
"5  c #5C1E22",
"6  c #4A171B",
"7  c #4B161A",
"8  c #3F1014",
"9  c #49262F",
"0  c #581C20",
"q  c #591E21",
"w  c #92312F",
"e  c #872E2E",
"r  c #8D2F2E",
"t  c #5E1F22",
"y  c #98322F",
"u  c #912D29",
"i  c #571A1D",
"p  c #9C312C",
"a  c #742324",
"s  c #5D1B1D",
"d  c #692123",
"f  c #6B2528",
"g  c #593F4C",
"h  c #56181A",
"j  c #982F32",
"k  c #81282B",
"l  c #451317",
"z  c #52191D",
"x  c #76262A",
"c  c #581A1D",
"v  c #8B2E30",
"b  c #9E3436",
"n  c #892A2D",
"m  c #3A1013",
"M  c #531C1F",
"N  c #360F13",
"B  c #5D1A1E",
"V  c #A75C4A",
"C  c #4A1B1E",
"Z  c #656362",
"A  c #832C26",
"S  c #C53F41",
"D  c #862B29",
"F  c #876B67",
"G  c #301316",
"H  c #B4624F",
"J  c #994840",
"K  c #E5B9A3",
"L  c #D58F55",
"P  c #E7A376",
"I  c #DE9965",
"U  c #E0BA98",
"Y  c #BA6552",
"T  c #641C22",
"R  c #B84B46",
"E  c #D8775E",
"W  c #761F28",
"Q  c #624454",
"!  c #7E212B",
"~  c #A03B42",
"^  c #C66F6F",
"/  c #B35559",
"(  c #6C1723",
")  c #60313F",
"_  c #6A6B82",
"`  c #9C7173",
"'  c #AB3333",
"]  c #BE4848",
"[  c #D06E6D",
"{  c #B15454",
"}  c #7D2325",
"|  c #995051",
" . c #695259",
".. c #611B1D",
"X. c #A53030",
"o. c #8E292A",
"O. c #782224",
"+. c #832527",
"@. c #675468",
"#. c #935243",
"$. c #922E31",
"%. c #862D2F",
"&. c #912E2F",
"*. c #8C2E30",
"=. c #623343",
"-. c #6C4A5E",
";. c #522532",
":. c #350D11",
">. c #7A3629",
",. c #B76922",
"<. c #844427",
"1. c #39171E",
"2. c #6B3346",
"3. c #545162",
"4. c #4E191C",
"5. c #3E1215",
"6. c #3A2C35",
"7. c #697188",
"8. c #61687F",
"9. c #3B3744",
"0. c #4D1C20",
"q. c #3A3947",
"w. c #35151A",
"e. c #2C242E",
"r. c #595F74",
"t. c #656D84",
"y. c #51576B",
"u. c #494E61",
"i. c #393B4B",
"p. c #302C32",
"a. c #2E2E35",
"s. c #373E4E",
"d. c #22262F",
"f. c #3B373C",
"g. c #262D3B",
"h. c #4D5366",
"j. c #555B70",
"k. c #3D4354",
"l. c #384852",
"z. c #2F3B47",
"x. c #41565D",
"c. c #313848",
"v. c #43495B",
"b. c #5D647A",
/* pixels */
"                                                                ",
"  . . X X . . X X X o o o o o o o o o o o X X . . X o o X . .   ",
"  . O O O O O o o o O O O O o o o o o o o o o o o o o o o o X   ",
"  X O o o o o o o o o o o o o o o o o o o o o o o o o o o o X   ",
"  X O o o o o o o o o o o o + @ @ @ # o o o o o o o o o o o .   ",
"  X O o o o o o o o o o o $ % & & & * = o o o o o o o o o o .   ",
"  X o o o o o o o o @ % - ; : > , < 1 2 $ o o o o o o o o o o   ",
"  X o o o o o o o $ 3 4 5 : : 6 , < 7 8 $ o o o o o o o o o X   ",
"  o o o o o o o o o 9 0 < < q q q , w e * # o o o o o o o o X   ",
"  o o o o o o o o o 9 0 r t y y y y u i = o o o o o o o o o o   ",
"  o o o o o o o o = 1 0 p a s y s d f f f g o o o o o o o o o   ",
"  o o o o o o o o # 7 & h j k f l f l l z g o o o o o o o o o   ",
"  o o o o o o o o o @ x c v b n m M N B # o o o o o o o o o X   ",
"  o o o o o o o o o @ V C Z A S D F G H = o o o o o o o o o X   ",
"  o o o o o o o o o % 1 J K L P I U Y < * # o o o o o o o o .   ",
"  o o o o o o o o o + % T R P P P E W z # o o o o o o o o X .   ",
"  o o o o o o o o o o o Q ! ~ ^ / ( ) _ o o o o o o o o o X .   ",
"  o o o o o o o o o o $ ` ' ] [ { } |  .o o o o o o o o o O .   ",
"  o o o o o o o o o @ 0 ..X.X.o.O.X.+.0 = o o o o o o o o O .   ",
"  X o o o o o o o o @.#.$.%...O.X.&.*.V =.o o o o o o o o o X   ",
"  X o o o o o o o o o -.;.:.>.,.<.8 1.2.o o o o o o o o o o O   ",
"  o o o o o o o o o o o 3.4.& 5.& & 6.o o o o o o o o o o o O   ",
"  o o o o o o o o o 7.8.9.:.0.q.w.7 e.r.t.o o o o o o o o o o   ",
"  o o o o o o o o o y.u.i.p.a.s.d.f.g.u.h.t.o o o o o o o o o   ",
"  o o o o o o o o j.u.u.k.l.l.k.z.x.c.u.u.u.o o o o o o o o .   ",
"  o o o o o o o o t.u.u.u.k.k.u.v.s.u.u.u.r.o o o o o o o . .   ",
"  o o o o o o o o o t.j.u.u.u.u.u.u.u.y.b.o o o o o o o o . .   ",
"  X o o o o o o o o o o 8.8.u.u.u.r.8.7.o o o o o o o o . . X   ",
"  X o o o o o o o o o o o o o o o o o o o X o o o o o . X X X   ",
"  . X o o o o o o o o o o o o o o o o o O X o o o o . X X X     ",
"  . . X X X X o o X o o o o o o X X X X . . X X o . X X         ",
"                                                                "
};
