/* XPM */
static char *result[] = {
/* columns rows colors chars-per-pixel */
"48 48 17 1 ",
"  c #090A14",
". c #21080A",
"X c #3F1014",
"o c #151D28",
"O c #4A171B",
"+ c #511927",
"@ c #6A1323",
"# c #772B2E",
"$ c #394A50",
"% c #577277",
"& c #A8352F",
"* c #A53030",
"= c #D53E3E",
"- c #C53F41",
"; c #E7A376",
": c #C7CFCC",
"> c None",
/* pixels */
">>>>>>>>>>>>>>>>>>>>>>>>>>>>>>>>>>>>>>>>>>>>>>>>",
">>>>>>>>>>>>>>>>>>>>>>>>>>>>>>>>>>>>>>>>>>>>>>>>",
">>>>>>>>>>>>>>>>>>>>>>>>>>>>>>>>>>>>>>>>>>>>>>>>",
">>>>>>>>>>>>>>>>>>>>>>>>>>>>>>>>>>>>>>>>>>>>>>>>",
">>>>>>>>>>>>>>>>>>>>>>>>>>>>>>>>>>>>>>>>>>>>>>>>",
">>>>>>>>>>>>>>>>>>>>>>>>>>>>>>>>>>>>>>>>>>>>>>>>",
">>>>>>>>>>>>>>>>>>>XXXXXXXX>>>>>>>>>>>>>>>>>>>>>",
">>>>>>>>>>>>>>>>>XX########X>X>>>>>>>>>>>>>>>>>>",
">>>>>>>>>>>>>>>>X&#########OX#XX>>>>>>>>>>>>>>>>",
">>>>>>>>>>>>>>>>>XX##OOOOO#O##&#X>>>>>>>>>>>>>>>",
">>>>>>>>>>>>>>>>XX&####OO####&XX>>>>>>>>>>>>>>>>",
">>>>>>>>>>>>>>>X##&###OOO####XX>>>>>>>>>>>>>>>>>",
">>>>>>>>>>>>>>>>X##&####O#####XX>>>>>>>>>>>>>>>>",
">>>>>>>>>>>>>>>X#############X##X>>>>>>>>>>>>>>>",
">>>>>>>>>>>>>>X##X##&######&##X#X>>>>>>>>>>>>>>>",
">>>>>>>>>>>>>>X#XXX##&&&&&&###XX>>>>>>>>>>>>>>>>",
">>>>>>>>>>>>>>>X>XX###&&&&###XX>>>>>>>>>>>>>>>>>",
">>>>>>>>>>>>>>>>X-X#########X-X>>>>>>>>>>>>>>>>>",
">>>>>>>>>>>>>>>>X;X#########X;X>>>>>>>>>>>>>>>>>",
">>>>>>>>>>>>>>>>>X##+###X####X>>>>>>>>>>>>>>>>>>",
">>>>>>>>>>>>>>>>X##+####X##X##X>>>>>>>>>>>>>>>>>",
">>>>>>>>>>>>>>>>X#X+##X#X##XX#X>>>>>>>>>>>>>>>>>",
">>>>>>>>>>>>>>>>>X>XX@X#X@XX>X>>>>>>>>>>>>>>>>>>",
">>>>>>>>>>>>>>>>>>>>XX@X@X#X>>>>>>>>>>>>>>>>>>>>",
">>>>>>>>>>>>>>>>>>>XX*:::=*#X>>>>>>>>>>>>>>>>>>>",
">>>>>>>>>>>>>>>>>>X#*X*==***#X>>>>>>>>>>>>>>>>>>",
">>>>>>>>>>>>>>>>>>X#:*X*****XX>>>>>>>>>>>>>>>>>>",
">>>>>>>>>>>>>>>>>X#XX**X****-@>>>>>>>>>>>>>>>>>>",
">>>>>>>>>>>>>>>>>XXXXX**XXXX@>>>>>>>>>>>>>>>>>>>",
">>>>>>>>>>>>>>>>>@;-XXXXXX##>>>>>>>>>>>>>>>>>>>>",
">>>>>>>>>>>>>>>>>@;;##XXXXX.>>>>>>>>>>>>>>>>>>>>",
">>>>>>>>>>>>>>>>>>@@XXXXXXX.>>>>>>>>>>>>>>>>>>>>",
">>>>>>>>>>>>>>>>>>>>ooo.###.>>>>>>>>>>>>>>>>>>>>",
">>>>>>>>>>>>>>>>>>>>>>>.X#X.>>>>>>>>>>>>>>>>>>>>",
">>>>>>>>>>>>>>>>>>>>>>>.XXXo>>>>>>>>>>>>>>>>>>>>",
">>>>>>>>>>>>>>>>>>>>>>>o$%%o>>>>>>>>>>>>>>>>>>>>",
">>>>>>>>>>>>>>>>>>>>>>>ooooo>>>>>>>>>>>>>>>>>>>>",
">>>>>>>>>>>>>>>>>>>>>>>>   >>>>>>>>>>>>>>>>>>>>>",
">>>>>>>>>>>>>>>>>>>>>>>>>>>>>>>>>>>>>>>>>>>>>>>>",
">>>>>>>>>>>>>>>>>>>>>>>>>>>>>>>>>>>>>>>>>>>>>>>>",
">>>>>>>>>>>>>>>>>>>>>>>>>>>>>>>>>>>>>>>>>>>>>>>>",
">>>>>>>>>>>>>>>>>>>>>>>>>>>>>>>>>>>>>>>>>>>>>>>>",
">>>>>>>>>>>>>>>>>>>>>>>>>>>>>>>>>>>>>>>>>>>>>>>>",
">>>>>>>>>>>>>>>>>>>>>>>>>>>>>>>>>>>>>>>>>>>>>>>>",
">>>>>>>>>>>>>>>>>>>>>>>>>>>>>>>>>>>>>>>>>>>>>>>>",
">>>>>>>>>>>>>>>>>>>>>>>>>>>>>>>>>>>>>>>>>>>>>>>>",
">>>>>>>>>>>>>>>>>>>>>>>>>>>>>>>>>>>>>>>>>>>>>>>>",
">>>>>>>>>>>>>>>>>>>>>>>>>>>>>>>>>>>>>>>>>>>>>>>>"
};
