/* XPM */
static char *result[] = {
/* columns rows colors chars-per-pixel */
"48 48 16 1 ",
"  c #21080A",
". c #3F1014",
"X c #151D28",
"o c #4A171B",
"O c #511927",
"+ c #6A1323",
"@ c #772B2E",
"# c #394A50",
"$ c #577277",
"% c #A8352F",
"& c #A53030",
"* c #D53E3E",
"= c #C53F41",
"- c #E7A376",
"; c #C7CFCC",
": c None",
/* pixels */
"::::::::::::::::::::::::::::::::::::::::::::::::",
"::::::::::::::::::::::::::::::::::::::::::::::::",
"::::::::::::::::::::::::::::::::::::::::::::::::",
"::::::::::::::::::::::::::::::::::::::::::::::::",
"::::::::::::::::::::::::::::::::::::::::::::::::",
"::::::::::::::::::::::::::::::::::::::::::::::::",
"::::::::::::::::::::::::::::::::::::::::::::::::",
":::::::::::::::::::......:::::::::::::::::::::::",
":::::::::::::::::..@@@@@@..:::::::::::::::::::::",
"::::::::::::::::.%@@@@@@@@@.:.::::::::::::::::::",
":::::::::::::::::..@@@@@@@@o.@..::::::::::::::::",
"::::::::::::::::....@ooooo@o@@%@.:::::::::::::::",
":::::::::::::::.@@%@@@@oo@@@@@..::::::::::::::::",
"::::::::::::::::.@%@@@ooo@@@@..:::::::::::::::::",
"::::::::::::::::...%@@@@o@@@@%..::::::::::::::::",
":::::::::::::::.@@@@@@@@@@@@@.@@.:::::::::::::::",
"::::::::::::::.@@.@@%@@@@@@%@@.@.:::::::::::::::",
":::::::::::::::....@@%%%%%%@@@..::::::::::::::::",
":::::::::::::::::..@@@%%%%@@@..:::::::::::::::::",
"::::::::::::::::.=.@@@@@@@@@.=.:::::::::::::::::",
"::::::::::::::::.-+@@@@@@@@@.-.:::::::::::::::::",
":::::::::::::::.@@+@O@@@.@@@+@@.::::::::::::::::",
"::::::::::::::::.@+O@@@@.@@.+@.:::::::::::::::::",
":::::::::::::::::..O@@.@.@@...::::::::::::::::::",
":::::::::::::::::::..+.@.+..::::::::::::::::::::",
"::::::::::::::::::O@..;.;..@O:::::::::::::::::::",
":::::::::::::::::.;&&.***&&&;.::::::::::::::::::",
"::::::::::::::::.@.&&&.&&&&&.@.:::::::::::::::::",
"::::::::::::::::...&&&&.&&&&...:::::::::::::::::",
"::::::::::::::::+-=@@&&&...@=-+:::::::::::::::::",
":::::::::::::::::++ ....... ++::::::::::::::::::",
"::::::::::::::::::: ....... ::::::::::::::::::::",
"::::::::::::::::::: @@. @@@ ::::::::::::::::::::",
":::::::::::::::::::X..X: @. ::::::::::::::::::::",
":::::::::::::::::::X##X: .. ::::::::::::::::::::",
"::::::::::::::::::::XX::X##X::::::::::::::::::::",
"::::::::::::::::::::::::X$$X::::::::::::::::::::",
":::::::::::::::::::::::::XX:::::::::::::::::::::",
"::::::::::::::::::::::::::::::::::::::::::::::::",
"::::::::::::::::::::::::::::::::::::::::::::::::",
"::::::::::::::::::::::::::::::::::::::::::::::::",
"::::::::::::::::::::::::::::::::::::::::::::::::",
"::::::::::::::::::::::::::::::::::::::::::::::::",
"::::::::::::::::::::::::::::::::::::::::::::::::",
"::::::::::::::::::::::::::::::::::::::::::::::::",
"::::::::::::::::::::::::::::::::::::::::::::::::",
"::::::::::::::::::::::::::::::::::::::::::::::::",
"::::::::::::::::::::::::::::::::::::::::::::::::"
};
