/* XPM */
static char *Chicken_07[] = {
/* columns rows colors chars-per-pixel */
"48 48 15 1 ",
"  c #1B1F21",
". c #202E37",
"X c #602C2C",
"o c #752438",
"O c #394A50",
"+ c #577277",
"@ c #A53030",
"# c #884B2B",
"$ c #BE772B",
"% c #CF573C",
"& c #DE9E41",
"* c #819796",
"= c #C7CFCC",
"- c #EBEDE9",
"; c None",
/* pixels */
";;;;;;;;;;;;;;;;;;;;;;;;;;;;;;;;;;;;;;;;;;;;;;;;",
";;;;;;;;;;;;;;;;;;;;;;;;;;;;;;;;;;;;;;;;;;;;;;;;",
";;;;;;;;;;;;;;;;;;;;;;;;;;;;;;;;;;;;;;;;;;;;;;;;",
";;;;;;;;;;;;;;;;;;;;;;;;;;;;;;;;;;;;;;;;;;;;;;;;",
";;;;;;;;;;;;;;;;;;;;;;;;;;;;;;;;;;;;;;;;;;;;;;;;",
";;;;;;;;;;;;;;;;;;;;;;;;;;;;;;;;;;;;;;;;;;;;;;;;",
";;;;;;;;;;;;;;;;;;;;;;;;;;;;;;;;;;;;;;;;;;;;;;;;",
";;;;;;;;;;;;;;;;;;;;;;;;;;;;;;;;;;;;;;;;;;;;;;;;",
";;;;;;;;;;;;;;;;;;;;;;;;;;;;;;;;;;;;;;;;;;;;;;;;",
";;;;;;;;;;;;;;;;;;;;;;;;;;;;;;;;;;;;;;;;;;;;;;;;",
";;;;;;;;;;;;;;;;;;;;;;;;;;;;;;;;;;;;;;;;;;;;;;;;",
";;;;;;;;;;;;;;;;;;;;;;;;;;;;;;;;;;;;;;;;;;;;;;;;",
";;;;;;;;;;;;;;;;;;;;;;;;;;;;;;;;;;;;;;;;;;;;;;;;",
";;;;;;;;;;;;;;;;;;;;;;;;;;;;;;;;;;;;;;;;;;;;;;;;",
";;;;;;;;;;;;;;;;;;;;;;;;;;;;;;;;;;;;;;;;;;;;;;;;",
";;;;;;;;;;;;;;;;;;;;;;;;;;;;;;;;;;;;;;;;;;;;;;;;",
";;;;;;;;;;;;;;;;;;;;;;;;;;;;;;;;;;;;;;;;;;;;;;;;",
";;;;;;;;;;;;;;;;;;;;;;;;;;;;;;;;;;;;;;;;;;;;;;;;",
";;;;;;;;;;;;;;;;;;;;;;;;;;;;;;;;;;;;;;;;;;;;;;;;",
";;;;;;;;;;;;;;;;;;;;;;;;;;;;;;;;;;;;;;;;;;;;;;;;",
";;;;;;;;;;;;;;;;;;;;;;;;;;;;;;;;;;;;;;;;;;;;;;;;",
";;;;;;;;;;;;;;;;;;;;;;;;;;;;;;;;;;;;;;;;;;;;;;;;",
";;;;;;;;;;;;;;@@@@@;;;;;;;;;;;;;;;;;;;;;;;;;;;;;",
";;;;;;;;;;;;;@@%%%@;;;;;;;;;;;;;;;;;;;;;;;;;;;;;",
";;;;;;;;;;;;;@%%%@=OOO;;;;;;;;OO;;;;;;;;;;;;;;;;",
";;;;;;;;;;;;;@%%@=-===OO;;;;;O==O;;;;;;;;;;;;;;;",
";;;;;;;;;;;;;@@%o=-----=O;;;;O*=O;;;;;;;;;;;;;;;",
";;;;;;;;;;;;;O@oo=------=O;;O**==O;;;;;;;;;;;;;;",
";;;;;;;;;;;;;Ooo==@@-----=OO*==*=O;;;;;;;;;;;;;;",
";;;;;;;;;;;;;;Ooo@- ------=++*=**O;;;;;;;;;;;;;;",
";;;;;;;;;;;;;;O@@%  #-----=OO+*=*O;;;;;;;;;;;;;;",
";;;;;;;;;;;;;;;O%&&&#------==OO**O;;;;;;;;;;;;;;",
";;;;;;;;;;;;;;;;#&&#=--+-----==.*O;;;;;;;;;;;;;;",
";;;;;;;;;;;;;;;;#&#o@==+=---**=*.;;;;;;;;;;;;;;;",
";;;;;;;;;;;;;;;;;#oo@*=*+=====**.;;;;;;;;;;;;;;;",
";;;;;;;;;;;;;;;;;.+@+*==+..*****.;;;;;;;;;;;;;;;",
";;;;;;;;;;;;;;;;;X.+++***++.....;;;;;;;;;;;;;;;;",
";;;;;;;;;;;;;;;;;X$..+++++++..;;;;;;;;;;;;;;;;;;",
";;;;;;;;;;;;;;;;;;XX;.......;;;;;;;;;;;;;;;;;;;;",
";;;;;;;;;;;;;;;;;;;;;;#&&&#;;;;;;;;;;;;;;;;;;;;;",
";;;;;;;;;;;;;;;;;;;;;;;###;;;;;;;;;;;;;;;;;;;;;;",
";;;;;;;;;;;;;;;;;;;;;;;;;;;;;;;;;;;;;;;;;;;;;;;;",
";;;;;;;;;;;;;;;;;;;;;;;;;;;;;;;;;;;;;;;;;;;;;;;;",
";;;;;;;;;;;;;;;;;;;;;;;;;;;;;;;;;;;;;;;;;;;;;;;;",
";;;;;;;;;;;;;;;;;;;;;;;;;;;;;;;;;;;;;;;;;;;;;;;;",
";;;;;;;;;;;;;;;;;;;;;;;;;;;;;;;;;;;;;;;;;;;;;;;;",
";;;;;;;;;;;;;;;;;;;;;;;;;;;;;;;;;;;;;;;;;;;;;;;;",
";;;;;;;;;;;;;;;;;;;;;;;;;;;;;;;;;;;;;;;;;;;;;;;;"
};
