/* XPM */
static char *Chicken_05[] = {
/* columns rows colors chars-per-pixel */
"48 48 13 1 ",
"  c #1B1F21",
". c #202E37",
"X c #752438",
"o c #394A50",
"O c #577277",
"+ c #A53030",
"@ c #884B2B",
"# c #CF573C",
"$ c #DE9E41",
"% c #819796",
"& c #C7CFCC",
"* c #EBEDE9",
"= c None",
/* pixels */
"================================================",
"================================================",
"================================================",
"================================================",
"================================================",
"================================================",
"================================================",
"================================================",
"================================================",
"================================================",
"================================================",
"================================================",
"================================================",
"================================================",
"================================================",
"================================================",
"================================================",
"================================================",
"================================================",
"================================================",
"================================================",
"================================================",
"================================================",
"==========================o=====================",
"=========================o&o====================",
"=========================o&%o===================",
"=========================o&&%o==================",
"=============+++++======o%&&%%o=================",
"============++###+ooooooo%%%%%o=================",
"============+###+&***&&&ooooo%%o================",
"============+##+&******&o&&&&oo.================",
"============++#X&*******&***&&%.================",
"============o+XX&**********&%%%%.===============",
"============oXX&&++*******&&&%%%%.==============",
"=============oXX+* **&OO**&%%%%%.===============",
"=============o++#  @&&%%........================",
"==============o#$$$@&%%%OOOOOO.=================",
"===============@$$@&%%OOOOOO..==================",
"===============@$@XOOO......====================",
"================@XX...@$$$@=====================",
"=======================@@@======================",
"================================================",
"================================================",
"================================================",
"================================================",
"================================================",
"================================================",
"================================================"
};
