/* XPM */
static char *_5c65011e1a1464befcf46c12dc8cec1ZzbYH6Z1GXNG3ftU[] = {
/* columns rows colors chars-per-pixel */
"32 32 118 2 ",
"   c #06050D",
".  c #333941",
"X  c #4A5462",
"o  c #6D758D",
"O  c #9BABB2",
"+  c #7F5E6E",
"@  c #865764",
"#  c #C14A38",
"$  c #CA533B",
"%  c #B84135",
"&  c #684B52",
"*  c #A15759",
"=  c #BC9A98",
"-  c #9C7C7C",
";  c #686475",
":  c #4A5864",
">  c #A47378",
",  c #752438",
"<  c #B7949A",
"1  c #EBEDE9",
"2  c #E3E6E3",
"3  c #8C9798",
"4  c #626C80",
"5  c #677086",
"6  c #5C6779",
"7  c #BF8383",
"8  c #952C33",
"9  c #BC6F6E",
"0  c #D3D9D6",
"q  c #647179",
"w  c #98A3A3",
"e  c #566272",
"r  c #4D5A68",
"t  c #535F64",
"y  c #71432D",
"u  c #D46F3E",
"i  c #C58261",
"p  c #494D4D",
"a  c #B3BBBA",
"s  c #5D6D71",
"d  c #98AAA8",
"f  c #B7C3C0",
"g  c #3E5259",
"h  c #7B6559",
"j  c #CB8C3C",
"k  c #DE9E41",
"l  c #B57D39",
"z  c #90847C",
"x  c #C3CDCA",
"c  c #A8B6B4",
"v  c #899D9C",
"b  c #45525F",
"n  c #455B62",
"m  c #8F999A",
"M  c #96462E",
"N  c #A04F31",
"B  c #986859",
"V  c #BCC7C4",
"C  c #9CA5A5",
"Z  c #808C8E",
"A  c #D7DBD8",
"S  c #BFC9C6",
"D  c #5F7176",
"F  c #394553",
"G  c #516A70",
"H  c #516166",
"J  c #B33D34",
"K  c #BC4637",
"L  c #DBC3C0",
"P  c #798587",
"I  c #DBE0DC",
"U  c #B7C0BE",
"Y  c #DFE3DF",
"T  c #3D4C58",
"R  c #384C53",
"E  c #73696A",
"W  c #998D8B",
"Q  c #B8C3C1",
"!  c #48575D",
"~  c #C7D0CD",
"^  c #B0BCBA",
"/  c #A0B0AE",
"(  c #596C6F",
")  c #495B60",
"_  c #656D84",
"`  c #405157",
"'  c #A2ABAB",
"]  c #5E6F72",
"[  c #637779",
"{  c #4A5765",
"}  c #697188",
"|  c #604047",
" . c #9B672E",
".. c #5D6560",
"X. c #546B70",
"o. c #738B8C",
"O. c #4B6369",
"+. c #516468",
"@. c #617476",
"#. c #3E4858",
"$. c #51576B",
"%. c #4E4655",
"&. c #7F452C",
"*. c #524446",
"=. c #384351",
"-. c #32454C",
";. c #26363E",
":. c #293541",
">. c #3B4353",
",. c #494E61",
"<. c #4D5366",
"1. c #574E55",
"2. c #A8703B",
"3. c #C1823A",
"4. c #8D5E3C",
"5. c #61687F",
"6. c #5E4D4F",
"7. c #504E5B",
/* pixels */
"                                                                ",
"  . . X X . . X X X o o o o o o o o o o o X X . . X o o X . .   ",
"  . O O O O O o o o O O O O o o o o o o o o o o o o o o o o X   ",
"  X O o o o o o o o o o o o o o o o o o o o o o o o o o o o X   ",
"  X O o o o o o o o o o o o o o o o o o o o o o o o o o o o .   ",
"  X O o o o o o o o o o o o o o o o o o o o o o o o o o o o .   ",
"  X o o o o o o o o o o o o o o o o o o o o o o o o o o o o o   ",
"  X o o o o o o o o o o o o o o o o o o o o o o o o o o o o X   ",
"  o o o o o o o o o o o o o o o o o o o o o o o o o o o o o X   ",
"  o o o o o o o o o o o o o o o o o o o o o o o o o o o o o o   ",
"  o o o o o o o o o o o o o o o o o o o o o o o o o o o o o o   ",
"  o o o o o o o o o o o o o o o o o o o o o o o o o o o o o o   ",
"  o o o o o o o o o o o o o + + o o o o o o o o o o o o o o X   ",
"  o o o o o o o o o o o o @ # # @ o o o o o o o o o o o o o X   ",
"  o o o o o o o o o o o + # $ # % + o o o o o o o o o o o o .   ",
"  o o o o o o o o o o o & # * = - ; o o o o o o o o o o o X .   ",
"  o o o o o o o o o o : > , < 1 2 3 4 o 5 6 o o o o o o o X .   ",
"  o o o o o o o o o o : 7 8 9 9 1 0 : o q w e o o o o o o O .   ",
"  o o o o o o o o o r t y u i p 1 1 a s d f q 5 o o o o o O .   ",
"  X o o o o o o o e g h j k l z 1 1 1 x c v w 6 o o o o o o X   ",
"  X o o o o o o o b n m M N B V 1 C Z A S c D 4 o o o o o o O   ",
"  o o o o o o o o F G H J K L P 1 I U Z Y d : o o o o o o o O   ",
"  o o o o o o o o o T R E W Q ! ~ c ^ / ( ) e o o o o o o o o   ",
"  o o o o o o o o o _ T ` ^ d ' ] f / ^ [ { o o o o o o o o o   ",
"  o o o o o o o o o } |  ...X.o.O.+.@.@.#.} o o o o o o o o .   ",
"  o o o o o o o o o $.%.&.*.=.-.-.;.:.>.,.$.o o o o o o o . .   ",
"  o o o o o o o o o _ <.,.,.1.2.3.4.,.,.<._ o o o o o o o . .   ",
"  X o o o o o o o o o _ 5.$.,.1.6.7.$.5._ o o o o o o o . . X   ",
"  X o o o o o o o o o o o o o o o o o o o X o o o o o . X X X   ",
"  . X o o o o o o o o o o o o o o o o o O X o o o o . X X X     ",
"  . . X X X X o o X o o o o o o X X X X . . X X o . X X         ",
"                                                                "
};
