/* XPM */
static char *_8aed355820244018916862fb9728b7eSBbqSRBP2uGEAXTZ[] = {
/* columns rows colors chars-per-pixel */
"32 32 113 2 ",
"   c black",
".  c #241527",
"X  c #201327",
"o  c #311A28",
"O  c #3B1E29",
"+  c #261627",
"@  c #1E1327",
"#  c #191126",
"$  c #150D26",
"%  c #170F26",
"&  c #1E1227",
"*  c #1D1227",
"=  c #1A1126",
"-  c #201327",
";  c #371C29",
":  c #48242A",
">  c #562F29",
",  c #4B262A",
"<  c #381D28",
"1  c #391D28",
"2  c #43212A",
"3  c #321B28",
"4  c #46222A",
"5  c #1C1226",
"6  c #3D1F29",
"7  c #1B1226",
"8  c #412029",
"9  c #46222A",
"0  c #160E26",
"q  c #522B2A",
"w  c #512B2A",
"e  c #1B1126",
"r  c #422029",
"t  c #3C1E29",
"y  c #150E26",
"u  c #532C29",
"i  c #4F292A",
"p  c None",
"a  c #221427",
"s  c #2B1828",
"d  c #321A28",
"f  c #331B28",
"g  c #321A28",
"h  c #321B28",
"j  c #622D2C",
"k  c #6E372C",
"l  c #793F2C",
"z  c #4D2729",
"x  c #492429",
"c  c #5C2B2C",
"v  c #3E2028",
"b  c #5D2B2C",
"n  c #602C2C",
"m  c #6A392A",
"M  c #52282A",
"N  c #5B2A2B",
"B  c #3E1F28",
"V  c #52272A",
"C  c #6D362C",
"Z  c #763E2B",
"A  c #5F2D2B",
"S  c #3D1F28",
"D  c #5A2A2B",
"F  c #472329",
"G  c #5C2A2C",
"H  c #733D2B",
"J  c #432328",
"K  c #3B1F28",
"L  c #4D252A",
"P  c #6C3A2A",
"I  c #5F2D2C",
"U  c #3C1F28",
"Y  c #56282B",
"T  c #4E252A",
"R  c #6A342C",
"E  c #632E2C",
"W  c #733C2B",
"Q  c #64362A",
"!  c #733B2B",
"~  c #6A382A",
"^  c #69372A",
"/  c #652F2C",
"(  c #5F2C2C",
")  c #763D2C",
"_  c #763C2C",
"`  c #753C2C",
"'  c #68322C",
"]  c #5A292B",
"[  c #612C2C",
"{  c #432129",
"}  c #552E29",
"|  c #5B2A2C",
" . c #65332B",
".. c #642F2C",
"X. c #5E2B2C",
"o. c #5C2A2B",
"O. c #68352B",
"+. c #783F2B",
"@. c #562E29",
"#. c #753D2B",
"$. c #6E362C",
"%. c #50262A",
"&. c #57292B",
"*. c #783E2B",
"=. c #432229",
"-. c #4A242A",
";. c #65302C",
":. c #452229",
">. c #4A2429",
",. c #462229",
"<. c #55282B",
"1. c #442229",
"2. c white",
/* pixels */
"                                                                ",
"                                                                ",
"                                                                ",
"                                                                ",
"                                                                ",
"                                                                ",
"                                                                ",
"                                                                ",
"                                                                ",
"          . . . . . . . . . . . . . . . . . . . . . .           ",
"          . + @ # $ % & * = - = = - = * & % $ # @ + .           ",
"          . @ ; : > , < 1 2 3 2 2 3 2 1 < , > : ; @ .           ",
"          . # 4 j k l z x c v c c v c x z l k j 4 # .           ",
"          . 5 6 b n k m M N B N N B N M m k n b 6 5 .           ",
"          . 7 8 V c n C Z A S N N S A Z C n c V 8 7 .           ",
"          . # 9 D F G n k H J N N J H k n G F D 9 # .           ",
"          . # 9 c K L c n C P I I P C n c L K c 9 # .           ",
"          . = 9 N U Y T D n R E E R n D T Y U N 9 = .           ",
"          . 0 q W Q ! ~ ^ / ( n n ( / ^ ~ ! Q W q 0 .           ",
"          . 0 w ) _ ` _ ` ' n n n n ' ` _ ` _ ) w 0 .           ",
"          . e r D D ] ] N E [ n n [ E N ] ] D D r e .           ",
"          . 5 t L B L { } W j n n j W } { L B L t 5 .           ",
"          . # 9 c S |  .H ..X.( ( X...H  .| S c 9 # .           ",
"          . # 9 o.S O.+...| F o.o.F | ..+.O.S o.9 # .           ",
"          . = 9 G @.#...G L K N N K L G ..#.@.G 9 = .           ",
"          . # 9 $.Z ..| %.&.v N N v &.%.| ..Z $.9 # .           ",
"          . y u *...G =.-.c B N N B c -.=.G ..*.u y .           ",
"          . % i ;.G V :.>.c v N N v c >.:.V G ;.i % .           ",
"          . = 9 c ,.<.F F &.U &.&.U &.F F <.,.c 9 = .           ",
"          . e p %.{ F :.:.F 1.F F 1.F :.:.F { %.p e .           ",
"          . a s d f g h h g f g g f g h h g f d s a .           ",
"          . X o O O O O O O O O O O O O O O O O o X .           "
};
