/* XPM */
static char *_65de3a0c2174820d4f1272e86b9969c1YjGgU4AYQ1M9Ru4[] = {
/* columns rows colors chars-per-pixel */
"32 32 50 1 ",
"  c #361C29",
". c #381D28",
"X c #3D1E29",
"o c #3F1F29",
"O c #3F2028",
"+ c #402029",
"@ c #44212A",
"# c #47242A",
"$ c #48232A",
"% c #4A2429",
"& c #4C242A",
"* c #4F2929",
"= c #50272B",
"- c #54272A",
"; c #502A2A",
": c #57292B",
"> c #532C29",
", c #542E29",
"< c #592A2B",
"1 c #5C2A2B",
"2 c #592D2B",
"3 c #5E2C2B",
"4 c #5A2A2C",
"5 c #5E2B2C",
"6 c #5F2C2C",
"7 c #5B3029",
"8 c #5F322A",
"9 c #602D2B",
"0 c #632F2B",
"q c #602C2C",
"w c #642E2C",
"e c #60322B",
"r c #66332B",
"t c #67332B",
"y c #62342A",
"u c #65352A",
"i c #66312C",
"p c #69342B",
"a c #6D372B",
"s c #68332C",
"d c #6A352C",
"f c #6C362C",
"g c #6A382B",
"h c #6C382B",
"j c #6F392C",
"k c #713A2B",
"l c #733C2B",
"z c #753D2B",
"x c #713A2C",
"c c #743B2C",
/* pixels */
" X@*,;#X .X+. X++X .+X. X#;,*@X ",
"X@=28e2%OO@%+.@&&@.+%@OO%2e82=@X",
"@&5ifch2%%=<%+=44=+%<=%%2hcfi5&@",
"+&5wixxu2;;<&+=55=+&<;;2uxxiw5&+",
"X$<5qifhu2<<%+=11=+%<<2uhfiq5<$X",
"X@=<5qidhhp3%+=11=+%3phhdiq5<=@X",
"+$=::4qifkkr*+=11=+*rkkfiq4::=$+",
"@&:=%=5qifxh2#=11=#2hxfiq5=%=:&@",
"@&<&+%:4qidhu725527uhdiq4:%+&<&@",
"@&4&O@=<45wdhgr66rghdw54:=@O&4&@",
"@&<&X$===<6qsdiqqidsq6<===$X&<&@",
"%;9:%:32239qwiwqqwiwq93223:%:9;%",
";8hgypkpuprwqqqqqqqqwrpuphpygh8;",
";8lzklzzkkaiq66qq66qsakklzlkzl8;",
"*8xcxxxxxxfsqqqqqqqwsfxxxxxxcj8*",
"@;9re99999qwqqqqqqqqiw99999er9;@",
"X@=-=--==:3iwqqqqqqwi3:==--=-=$X",
"X+&$+$&$%>ehsqqqqqqshe>%$&$+$&@X",
"+$=$+$=;,ypaiqqqqqqiapy,;=$O$=$+",
"@&4&+&6rphai65566556iahpr6&+&4&@",
"@&<&+;rkkdi6:=<11<=:6idkkr;+&<&@",
"@&<=%2hkhi5:%@=11=@%:5ihkh2#=<&@",
"@&4:,ukdw6<&@+=11=+@&<6wdku,:4&@",
"@=qrupfw5<:=@+=11=+@=:<5wfpurq=@",
"@:dxkdq5:==:%+=11=+%:==:5qdkxd:@",
"*8kcdw5=%&=<&+=11=+%<-&%=5wdxk8*",
";8kfq5:%@%=4&+=11=+&4=%@%:5qfk8;",
"*2iw5<=$@%=4&+=11=+&4;%@$=<5wi2*",
"%;65--=%@$=<%+&<<&+%<=$@%===46:&",
"@&4=$==%@@&:%+&::&+%:&@@%=&$=4&@",
"+$=&@$%$@@%&@+%&&%+@&%@@$%$@&=$@",
"+@&%@@@@@@@@@@@@@@@@@@@@@@@@%&@+"
};
