/* XPM */
static char *_7d69f95416f4b90a332dbd9bd9bd458WB4eMf8MTp3tWmFx[] = {
/* columns rows colors chars-per-pixel */
"32 32 109 2 ",
"   c #291727",
".  c #2F1927",
"X  c #381D28",
"o  c #3A1E28",
"O  c #371C28",
"+  c #2D1827",
"@  c #251527",
"#  c #241527",
"$  c #2A1827",
"%  c #321B28",
"&  c #3E2029",
"*  c #422129",
"=  c #3E1F29",
"-  c #301928",
";  c #251527",
":  c #241527",
">  c #2B1927",
",  c #361D28",
"<  c #47232A",
"1  c None",
"2  c #46232A",
"3  c #331B28",
"4  c #251527",
"5  c #241527",
"6  c #2B1927",
"7  c #371D28",
"8  c #48232A",
"9  c #2B1927",
"0  c #371D28",
"q  c #48232A",
"w  c #2B1827",
"e  c #371C28",
"r  c #2D1927",
"t  c #391E28",
"y  c #49242A",
"u  c #361F27",
"i  c #422328",
"p  c #51282A",
"a  c #4C2A28",
"s  c #572E29",
"d  c #64332A",
"f  c #522C29",
"g  c #5C302A",
"h  c #69342B",
"j  c #4A252A",
"k  c #54292B",
"l  c #622F2C",
"z  c #46222A",
"x  c #51272B",
"c  c #5F2C2C",
"v  c #44222A",
"b  c #50262B",
"n  c #5E2C2C",
"m  c #45222A",
"M  c #5E2B2C",
"N  c #43212A",
"B  c #4D252B",
"V  c #5B2A2C",
"C  c #3A1E29",
"Z  c #442229",
"A  c #52272A",
"S  c #321B28",
"D  c #3D1F28",
"F  c #4B242A",
"G  c #381D28",
"H  c #472329",
"J  c #2C1927",
"K  c #452229",
"L  c #311B28",
"P  c #391E28",
"I  c #442229",
"U  c #351C28",
"Y  c #3B1E28",
"T  c #442129",
"R  c #4D252A",
"E  c #47232A",
"W  c #341B28",
"Q  c #251527",
"!  c #241527",
"~  c #4C252A",
"^  c #46232A",
"/  c #331B28",
"(  c #47222A",
")  c #51272A",
"_  c #331A28",
"`  c #5B2D2B",
"'  c #321A28",
"]  c #5E2E2B",
"[  c #5A2B2B",
"{  c #582A2B",
"}  c #472229",
"|  c #58292B",
" . c #462229",
".. c #56282B",
"X. c #46222A",
"o. c #51262B",
"O. c #4E252A",
"+. c #4B242A",
"@. c #462329",
"#. c #492429",
"$. c #432229",
"%. c #321B28",
"&. c #452229",
"*. c #3D1F28",
"=. c #2F1A28",
"-. c #422129",
";. c #3A1E28",
":. c #2D1927",
">. c #251627",
/* pixels */
"  . X o O + @ # # # # # # # # # # # # # # # # # # @ + O o X .   ",
"$ % & * = - ; : : : : : : : : : : : : : : : : : : ; - = * & % $ ",
"> , < 1 2 3 4 5 5 5 5 5 5 5 5 5 5 5 5 5 5 5 5 5 5 4 3 2 1 < , > ",
"6 7 8 R E W Q ! ! ! ! ! ! ! ! ! ! ! ! ! ! ! ! ! ! Q W E R 8 7 6 ",
"9 0 q ~ ^ / Q ! ! ! ! ! ! ! ! ! ! ! ! ! ! ! ! ! ! Q / ^ ~ q 0 9 ",
"9 0 q ~ ^ / Q ! ! ! ! ! ! ! ! ! ! ! ! ! ! ! ! ! ! Q / ^ ~ q 0 9 ",
"w 0 q ~ ^ / Q ! ! ! ! ! ! ! ! ! ! ! ! ! ! ! ! ! ! Q / ^ ~ q 0 w ",
"w e q ~ ^ / Q ! ! ! ! ! ! ! ! ! ! ! ! ! ! ! ! ! ! Q / ^ ~ q e w ",
"r t y R ( / Q ! ! ! ! ! ! ! ! ! ! ! ! ! ! ! ! ! ! Q / ( R y t r ",
"u i p ) ( _ Q ! ! ! ! ! ! ! ! ! ! ! ! ! ! ! ! ! ! Q _ ( ) p i u ",
"a s d ` E ' Q ! ! ! ! ! ! ! ! ! ! ! ! ! ! ! ! ! ! Q ' E ` d s a ",
"f g h ] E ' Q ! ! ! ! ! ! ! ! ! ! ! ! ! ! ! ! ! ! Q ' E ] h g f ",
"j k l [ E ' Q ! ! ! ! ! ! ! ! ! ! ! ! ! ! ! ! ! ! Q ' E [ l k j ",
"z x c { } ' Q ! ! ! ! ! ! ! ! ! ! ! ! ! ! ! ! ! ! Q ' } { c x z ",
"v b n |  .' Q ! ! ! ! ! ! ! ! ! ! ! ! ! ! ! ! ! ! Q '  .| n b v ",
"m b n | ( ' Q ! ! ! ! ! ! ! ! ! ! ! ! ! ! ! ! ! ! Q ' ( | n b m ",
"m b c | ( ' Q ! ! ! ! ! ! ! ! ! ! ! ! ! ! ! ! ! ! Q ' ( | c b m ",
"m b c | } ' Q ! ! ! ! ! ! ! ! ! ! ! ! ! ! ! ! ! ! Q ' } | c b m ",
"m b M |  .' Q ! ! ! ! ! ! ! ! ! ! ! ! ! ! ! ! ! ! Q '  .| M b m ",
"N B V ..X.' Q ! ! ! ! ! ! ! ! ! ! ! ! ! ! ! ! ! ! Q ' X...V B N ",
"C Z A o.( _ Q ! ! ! ! ! ! ! ! ! ! ! ! ! ! ! ! ! ! Q _ ( o.A Z C ",
"S D F O.( / Q ! ! ! ! ! ! ! ! ! ! ! ! ! ! ! ! ! ! Q / ( O.F D S ",
"+ G q R E / Q ! ! ! ! ! ! ! ! ! ! ! ! ! ! ! ! ! ! Q / E R q G + ",
"w e q ~ ^ / Q ! ! ! ! ! ! ! ! ! ! ! ! ! ! ! ! ! ! Q / ^ ~ q e w ",
"9 0 q ~ ^ / Q ! ! ! ! ! ! ! ! ! ! ! ! ! ! ! ! ! ! Q / ^ ~ q 0 9 ",
"9 0 q ~ ^ / Q ! ! ! ! ! ! ! ! ! ! ! ! ! ! ! ! ! ! Q / ^ ~ q 0 9 ",
"9 0 q ~ E / Q ! ! ! ! ! ! ! ! ! ! ! ! ! ! ! ! ! ! Q / E ~ q 0 9 ",
"9 0 q ~ E / Q ! ! ! ! ! ! ! ! ! ! ! ! ! ! ! ! ! ! Q / E ~ q 0 9 ",
"9 , H +.@./ Q ! ! ! ! ! ! ! ! ! ! ! ! ! ! ! ! ! ! Q / @.+.H , 9 ",
"J , K #.$.%.Q ! ! ! ! ! ! ! ! ! ! ! ! ! ! ! ! ! ! Q %.$.#.K , J ",
"L P I &.*.=.Q ! ! ! ! ! ! ! ! ! ! ! ! ! ! ! ! ! ! Q =.*.&.I P L ",
"U Y T -.;.:.>.! ! ! ! ! ! ! ! ! ! ! ! ! ! ! ! ! ! >.:.;.-.T Y U "
};
