/* XPM */
static char *_f4bde827fa140b2bab85074c80f14eafYk5LtsTLHwhvpDc[] = {
/* columns rows colors chars-per-pixel */
"32 32 59 1 ",
"  c black",
". c #241527",
"X c #201327",
"o c #311A28",
"O c #3C1E29",
"+ c #321B28",
"@ c #241527",
"# c #231427",
"$ c #1D1227",
"% c #241527",
"& c #221427",
"* c #291727",
"= c #3A1E28",
"- c #391D28",
"; c #251527",
": c #241527",
"> c #211427",
", c #2C1927",
"< c #2C1927",
"1 c #2C1827",
"2 c #201327",
"3 c #321C27",
"4 c #150D26",
"5 c #552F29",
"6 c #191026",
"7 c #49242A",
"8 c #1A1126",
"9 c #45222A",
"0 c #191126",
"q c #46222A",
"w c #1F1327",
"e c #361C28",
"r c None",
"t c #211427",
"y c #2C1828",
"u c #331B28",
"i c #2C1828",
"p c #241527",
"a c #4B252A",
"s c #4A242A",
"d c #251527",
"f c #241527",
"g c #4B242A",
"h c #49242A",
"j c #50272A",
"k c #49232A",
"l c #6F382B",
"z c #48232A",
"x c #642F2C",
"c c #612D2C",
"v c #482329",
"b c #622D2C",
"n c #602C2C",
"m c #50262A",
"M c #462329",
"N c #462229",
"B c #3B1E28",
"V c #251627",
"C c white",
/* pixels */
"                                ",
"                                ",
"                                ",
"                                ",
"                                ",
"                                ",
"                                ",
"                                ",
"                                ",
"     ......................     ",
"     .@#$$%%%%%%%%%%%%$$#@.     ",
"     .&*=-;::::::::::;-=*&.     ",
"     .>,asdffffffffffdsa,>.     ",
"     .><ghdffffffffffdhg<>.     ",
"     .><ghdffffffffffdhg<>.     ",
"     .>1ghdffffffffffdhg1>.     ",
"     .23jkdffffffffffdkj32.     ",
"     .45lzdffffffffffdzl54.     ",
"     .67xzdffffffffffdzx76.     ",
"     .89cvdffffffffffdvc98.     ",
"     .0qbzdffffffffffdzbq0.     ",
"     .0qbvdffffffffffdvbq0.     ",
"     .89nzdffffffffffdzn98.     ",
"     .wemkdffffffffffdkmew.     ",
"     .>1ghdffffffffffdhg1>.     ",
"     .><ghdffffffffffdhg<>.     ",
"     .><ghdffffffffffdhg<>.     ",
"     .><ghdffffffffffdhg<>.     ",
"     .><vMdffffffffffdMv<>.     ",
"     .wrNBVffffffffffVBNrw.     ",
"     .tyuippppppppppppiuyt.     ",
"     .XoO+............+OoX.     "
};
