/* XPM */
static char *Player_Parado_Cima04[] = {
/* columns rows colors chars-per-pixel */
"48 48 22 1 ",
"  c #160C0E",
". c #21080A",
"X c #3F1014",
"o c #151D28",
"O c #4A171B",
"+ c #511927",
"@ c #6A1323",
"# c #772B2E",
"$ c #394A50",
"% c #577277",
"& c #882D1D",
"* c #A8352F",
"= c #A53030",
"- c #D53E3E",
"; c #BE772B",
": c #C53F41",
"> c #FF9E1F",
", c #DA863E",
"< c #E7A376",
"1 c #C7CFCC",
"2 c #EBEDE9",
"3 c None",
/* pixels */
"333333333333333333333333333333333333333333333333",
"333333333333333333333333333333333333333333333333",
"333333333333333333333333333333333333333333333333",
"333333333333333333333333333333333333333333333333",
"333333333333333333333333333333333333333333333333",
"333333333333333333333333333333333333333333333333",
"333333333333333333333333333333333333333333333333",
"333333333333333333333XXX333333333333333333333333",
"33333333333333333333X###XXXX33333333333333333333",
"3333333333333333333X##O#####XX333333333333333333",
"3333333333333333XXXO##OOO####*X33333333333333333",
"333333333333333X*##O##OO####XX333333333333333333",
"33333333333333X#X####OOOOO###XX33333333333333333",
"333333333333333XXX##########*##X3333333333333333",
"333333333333333XX#*#X*******##X33333333333333333",
"33333333333333X##X**XX**X*X####X3333333333333333",
"33333333333333X#X#*X:X##X##X#X#X3333333333333333",
"333333333333333XX#XX:X##XX#XXX##X333333333333333",
"3333333333333333X#X:::X#XX#XX.XX3333333333333333",
"3333333333333333X:X   :XX X X:X33333333333333333",
"3333333333333333X<# 1&:::&1 #<X33333333333333333",
"33333333333333333X#<2;<<<;2<#X333333333333333333",
"3333333333333333X##:<<<<<<<:##X33333333333333333",
"3333333333333333X#X@:<<<<<:@X#X33333333333333333",
"33333333333333333X3+@@:::@@+3X333333333333333333",
"333333333333333333+#--111-X#+3333333333333333333",
"3333333333333333331===----X=13333333333333333333",
"33333333333333333XX======X==XX333333333333333333",
"3333333333333333X#X=====X===X#X33333333333333333",
"3333333333333333XXX====X====XXX33333333333333333",
"3333333333333333@<:##XX===##:<@33333333333333333",
"33333333333333333@@.X#,>,XX.@@333333333333333333",
"3333333333333333333.XXXXXXX.33333333333333333333",
"3333333333333333333.###.###.33333333333333333333",
"3333333333333333333.X#.3.#X.33333333333333333333",
"3333333333333333333o$$o3o$$o33333333333333333333",
"3333333333333333333o%%o3o%%o33333333333333333333",
"33333333333333333333oo333oo333333333333333333333",
"333333333333333333333333333333333333333333333333",
"333333333333333333333333333333333333333333333333",
"333333333333333333333333333333333333333333333333",
"333333333333333333333333333333333333333333333333",
"333333333333333333333333333333333333333333333333",
"333333333333333333333333333333333333333333333333",
"333333333333333333333333333333333333333333333333",
"333333333333333333333333333333333333333333333333",
"333333333333333333333333333333333333333333333333",
"333333333333333333333333333333333333333333333333"
};
